<svg width="640" height="560" viewBox="0 0 640 560" fill="none" xmlns="http://www.w3.org/2000/svg" role="img" aria-labelledby="heroTitle heroDesc">
  <title id="heroTitle">Scientific visualization with neural network nodes</title>
  <desc id="heroDesc">Abstract illustration showing interconnected nodes and flowing particles to represent trustworthy machine learning.</desc>
  <defs>
    <linearGradient id="paint0_linear" x1="80" y1="32" x2="560" y2="528" gradientUnits="userSpaceOnUse">
      <stop stop-color="#38BDF8"/>
      <stop offset="0.5" stop-color="#6366F1"/>
      <stop offset="1" stop-color="#EC4899"/>
    </linearGradient>
    <radialGradient id="paint1_radial" cx="0" cy="0" r="1" gradientUnits="userSpaceOnUse" gradientTransform="translate(320 280) rotate(90) scale(320 320)">
      <stop offset="0.05" stop-color="#0EA5E9" stop-opacity="0.25"/>
      <stop offset="0.6" stop-color="#111827" stop-opacity="0.8"/>
      <stop offset="1" stop-color="#020617" stop-opacity="1"/>
    </radialGradient>
    <filter id="glow" x="-20%" y="-20%" width="140%" height="140%" color-interpolation-filters="sRGB">
      <feGaussianBlur stdDeviation="12" result="blur"/>
      <feComposite in="blur" in2="SourceGraphic" operator="lighter"/>
    </filter>
  </defs>
  <rect width="640" height="560" rx="32" fill="url(#paint1_radial)"/>
  <g stroke="url(#paint0_linear)" stroke-opacity="0.7">
    <path d="M120 180C210 100 430 100 520 200" stroke-width="1.4" stroke-dasharray="6 12"/>
    <path d="M100 320C210 420 430 420 540 320" stroke-width="1.4" stroke-dasharray="4 10"/>
    <path d="M180 140C260 240 380 320 470 250" stroke-width="1.6" stroke-dasharray="3 9"/>
    <path d="M160 400C280 320 360 220 480 280" stroke-width="1.6" stroke-dasharray="5 11"/>
  </g>
  <g filter="url(#glow)">
    <circle cx="160" cy="160" r="36" fill="#38BDF8" fill-opacity="0.65"/>
    <circle cx="500" cy="200" r="28" fill="#F97316" fill-opacity="0.75"/>
    <circle cx="210" cy="360" r="26" fill="#10B981" fill-opacity="0.7"/>
    <circle cx="460" cy="360" r="34" fill="#A855F7" fill-opacity="0.7"/>
  </g>
  <g stroke="#94A3B8" stroke-opacity="0.55">
    <circle cx="320" cy="280" r="180" stroke-width="0.8" stroke-dasharray="2 12"/>
    <circle cx="320" cy="280" r="240" stroke-width="0.6" stroke-dasharray="1 14"/>
  </g>
  <g fill="#E0E7FF">
    <circle cx="320" cy="120" r="6"/>
    <circle cx="420" cy="280" r="7"/>
    <circle cx="260" cy="420" r="5"/>
    <circle cx="360" cy="460" r="6"/>
    <circle cx="200" cy="240" r="4"/>
    <circle cx="520" cy="300" r="5"/>
    <circle cx="120" cy="280" r="5"/>
  </g>
  <path d="M260 240C280 180 360 180 380 240" stroke="#38BDF8" stroke-width="3" stroke-linecap="round"/>
  <path d="M260 320C290 360 350 360 380 320" stroke="#F472B6" stroke-width="3" stroke-linecap="round"/>
  <rect x="268" y="248" width="104" height="88" rx="18" fill="#020617" fill-opacity="0.65" stroke="#38BDF8" stroke-width="2.2"/>
  <g fill="#C7D2FE">
    <rect x="288" y="268" width="28" height="8" rx="4"/>
    <rect x="288" y="286" width="64" height="8" rx="4"/>
    <rect x="288" y="304" width="58" height="8" rx="4"/>
  </g>
  <circle cx="348" cy="288" r="8" fill="#F97316"/>
  <circle cx="348" cy="306" r="8" fill="#38BDF8"/>
</svg>
